<svg width="74" height="88" viewBox="0 0 74 88" fill="none" xmlns="http://www.w3.org/2000/svg">
<g clip-path="url(#clip0_113_187)">
<path d="M74.0476 26.2353C72.0786 23.4696 70.1572 19.8585 67.4006 17.0625C56.2963 5.79152 36.4158 5.44906 25.1946 16.0871C22.213 18.9178 20.1964 22.3815 18.6601 26.1746C18.3529 26.9289 17.5999 27.6008 16.8945 28.082C11.8573 31.5283 6.73356 34.8575 1.75263 38.3819C0.947714 38.9498 0.692395 40.3066 0.294266 41.0869C-0.311582 39.678 -0.333221 38.8847 1.42807 37.4108C3.4966 35.6812 3.91637 33.6568 4.189 31.0818C5.68199 17.1102 13.0863 7.21773 26.177 2.34088C39.1118 -2.47961 50.9778 0.229756 61.3032 9.45892C62.6447 10.6554 64.0165 11.8258 65.4013 12.9703C69.8543 16.668 72.9095 21.2154 74.0476 26.2353Z" fill="#260606"/>
<path d="M18.5952 46.1588C18.3789 46.4363 17.9158 47.0258 17.3057 47.8104C20.5253 48.2786 21.8106 50.4418 22.5592 53.0558C23.7277 57.135 24.8441 61.2315 25.9866 65.3454C20.3263 65.003 10.0312 55.7738 7.94531 49.3971C11.5804 48.2916 15.2155 47.1862 18.5952 46.1588Z" fill="#260606"/>
<path d="M36.3034 41.8759C37.5714 43.4841 38.9605 45.0101 40.0813 46.7094C43.1365 51.3435 47.1957 53.9054 52.8863 54.1699C55.9156 54.3129 58.9016 55.3706 61.8183 56.4891C58.8799 56.0469 55.9502 55.31 52.9989 55.2276C46.3475 55.0369 41.8037 51.8073 38.6533 46.1675C37.8657 44.7586 36.8703 43.4668 35.9702 42.1186C36.0827 42.0362 36.1909 41.9539 36.3034 41.8759Z" fill="#260606"/>
<path d="M71.4254 44.1214C72.0529 38.1088 70.8109 32.4343 68.5303 26.9375C71.4903 32.3042 72.702 37.9917 71.4254 44.1214Z" fill="#260606"/>
<path d="M53.4185 20.0233C56.9757 22.2124 59.5592 25.4897 61.1387 29.2958C58.6201 26.2699 55.9544 23.0621 53.4185 20.0233Z" fill="#260606"/>
<path fill-rule="evenodd" clip-rule="evenodd" d="M56.7721 25.3639C51.8561 19.0566 45.2567 17.6997 37.5624 18.402C37.8057 18.2794 38.049 18.1568 38.2924 18.0341C39.5129 17.4189 40.7354 16.8026 41.9549 16.1955C35.1218 17.3182 29.8379 20.5305 27.0034 27.1109C26.6159 28.0089 26.0989 28.8541 25.5659 29.7256C25.3192 30.129 25.069 30.538 24.8267 30.9604C24.9898 30.8754 25.1748 30.7969 25.3677 30.7151C25.8044 30.5298 26.2814 30.3274 26.6355 29.9937C28.254 28.4765 28.5872 28.4895 29.6388 30.2798L30.276 29.8085C32.1375 28.4313 34.0302 27.0312 36.1041 25.4983C37.0172 28.199 37.7485 30.5442 36.4027 32.4733C35.561 33.6778 34.3538 34.6251 33.1467 35.5722C32.6162 35.9885 32.0857 36.4048 31.5862 36.843C33.1384 35.6231 34.0449 36.7781 34.8822 37.8452L34.9054 37.8747C36.7649 40.2404 38.6049 42.6224 40.4443 45.0038C41.6014 46.5017 42.7582 47.9993 43.9195 49.4924C45.2264 51.17 46.9747 51.9807 49.0649 52.3492C51.3828 52.7577 53.6923 53.2075 56.0017 53.6573C58.4223 54.1287 60.8426 54.6001 63.272 55.0238C63.8649 55.1279 64.804 54.7594 65.2021 54.2869C74.0042 43.8699 71.0485 26.0836 59.3816 19.0522C59.0614 18.858 58.7153 18.7057 58.3689 18.5534C58.2051 18.4813 58.0412 18.4092 57.88 18.3326C58.1963 19.1691 58.6647 19.6845 59.1329 20.1997C59.1451 20.2131 59.1574 20.2266 59.1696 20.24C65.0117 26.6644 66.8076 35.7115 63.5274 42.5001C63.1875 43.1987 62.7124 43.8327 62.2372 44.4669C62.0165 44.7613 61.7958 45.0558 61.5886 45.3569C61.4999 45.3243 61.4112 45.2907 61.3224 45.2571C61.2338 45.2235 61.1451 45.1899 61.0564 45.1574C62.8436 37.827 61.3593 31.2508 56.7721 25.3639ZM49.1385 43.9819C49.1385 43.9821 49.1385 43.9824 49.1385 43.9827C48.5413 39.0928 45.8929 36.6392 41.0374 36.0367C45.8323 35.4688 48.5802 33.1279 48.7274 27.7308C48.7274 27.731 48.7275 27.7311 48.7275 27.7312C48.7275 27.7311 48.7275 27.731 48.7275 27.7308C49.0866 28.5279 49.3724 29.2928 49.6387 30.0056C50.1907 31.483 50.659 32.7364 51.5231 33.5874C52.4236 34.4717 53.7189 34.9525 55.1658 35.4895C55.8396 35.7396 56.5463 36.0018 57.2613 36.3228C52.4362 36.6956 49.58 38.9194 49.1386 43.9827C49.1386 43.9824 49.1386 43.9821 49.1385 43.9819Z" fill="#260606"/>
<path d="M19.8417 76.9025C19.7378 77.1756 19.6859 77.466 19.6859 77.7695C19.6859 78.294 19.8331 78.7925 20.1273 79.2564C20.4216 79.7202 20.8111 80.1277 21.2958 80.4745C21.7804 80.8213 22.3257 81.0987 22.9402 81.2981C23.5547 81.4975 24.1865 81.6016 24.8356 81.6016L24.2601 82.6246C23.5763 82.6246 22.9142 82.5162 22.2694 82.3038C21.6246 82.0914 21.0534 81.7966 20.5601 81.4195C20.0667 81.0467 19.6686 80.6002 19.3657 80.0843C19.0628 79.5685 18.9113 79.0049 18.9113 78.3937H18.5218C17.9376 78.3937 17.4399 78.4154 17.0288 78.463C16.6177 78.5107 16.2629 78.5671 15.9729 78.6408C16.0941 78.8879 16.2888 79.1436 16.5572 79.4081C16.8211 79.6725 17.1327 79.9326 17.4919 80.1927C17.8467 80.4528 18.2362 80.7086 18.6603 80.96C19.0801 81.2114 19.5128 81.4455 19.9542 81.6666L18.63 83.6867C18.3141 83.522 17.9939 83.3572 17.678 83.1882C17.3621 83.0191 17.0635 82.8327 16.7908 82.6333H7.29199L8.18778 81.1897L8.6162 81.3241L8.44312 81.6059H15.4623C15.0555 81.2634 14.7569 80.9253 14.5665 80.5915C14.3761 80.2621 14.2852 79.9109 14.2852 79.5468C14.3025 79.1523 14.3934 78.7622 14.5579 78.3807C14.718 77.9992 14.9993 77.6567 15.3887 77.3576C15.7825 77.0542 16.3105 76.8114 16.9726 76.625C17.6347 76.4386 18.4786 76.3476 19.5042 76.3476C19.8201 76.3476 19.9802 76.4213 19.9802 76.5643C19.9759 76.6424 19.9326 76.7551 19.8417 76.9025ZM12.5023 83.3486L13.8957 84.4973L14.6271 83.3486L16.0768 84.5493L15.0728 85.9842L13.6924 84.8745L12.9524 85.9842L11.5113 84.8225L12.5023 83.3486Z" fill="#260606"/>
<path d="M24.2124 82.629L24.775 81.6059H28.687L28.0163 78.6018L29.5352 76.8548L30.6257 81.8096L29.1068 83.5436L28.9034 82.629H24.2124ZM27.484 75.2465L28.2629 74.1237L29.704 75.2855L28.7389 76.6987L27.3455 75.576L26.5666 76.6987L25.1255 75.5369L26.0905 74.1237L27.484 75.2465Z" fill="#260606"/>
<path d="M32.941 71.3537V81.5929L31.4048 83.1318V72.8926L32.941 71.3537Z" fill="#260606"/>
<path d="M35.7453 78.5324C36.191 79.6292 36.429 80.6652 36.455 81.6276C36.481 82.59 36.3252 83.4786 35.9919 84.2806C35.6587 85.0826 35.1611 85.7978 34.5033 86.4264C33.8455 87.055 33.0536 87.5752 32.1318 87.9913L33.019 86.0016C33.6291 85.7718 34.1095 85.438 34.4644 84.9959C34.8192 84.5537 34.9966 84.0335 34.9966 83.4353C34.9966 83.2055 34.9793 82.9628 34.9447 82.7027C34.9101 82.4426 34.8582 82.1825 34.7889 81.918C34.7197 81.6536 34.6418 81.3935 34.5552 81.1334C34.4687 80.8733 34.3735 80.6305 34.2783 80.4095L35.7453 78.5324Z" fill="#260606"/>
<path d="M40.2155 82.629C40.1592 83.1795 39.9948 83.7344 39.7351 84.2893C39.4755 84.8441 39.1422 85.3687 38.7484 85.8542C38.3503 86.3397 37.9089 86.7732 37.4199 87.146C36.9309 87.5188 36.4246 87.8006 35.9053 87.9913L36.7924 86.0016C37.4026 85.7718 37.8829 85.438 38.2378 84.9959C38.5926 84.5537 38.7701 84.0335 38.7701 83.4353C38.7701 83.2055 38.7528 82.9628 38.7181 82.7027C38.6835 82.4426 38.6316 82.1825 38.5624 81.918C38.4931 81.6536 38.4152 81.3935 38.3287 81.1334C38.2421 80.8733 38.1469 80.6305 38.0517 80.4095L39.5231 78.5281C39.5404 78.5107 39.5923 78.6148 39.6702 78.8489C39.7481 79.083 39.8346 79.3647 39.9212 79.6985C40.0077 80.0323 40.09 80.3748 40.1592 80.7259C40.2284 81.0814 40.2631 81.3718 40.2631 81.5972H41.1502L40.5746 82.6203H40.2068H40.2155V82.629ZM38.2075 76.0745L39.6486 77.2449L38.5883 78.7665L37.1559 77.6047L38.2075 76.0745Z" fill="#260606"/>
<path d="M51.4107 82.629H40.5098L41.0723 81.6059H48.732C48.4074 81.3805 48.0569 81.1507 47.6804 80.9253C47.3039 80.6999 46.9188 80.4962 46.5206 80.3141C46.1225 80.1364 45.7287 79.989 45.3349 79.8763C44.9411 79.7636 44.5603 79.7072 44.1968 79.7072C43.7467 79.7072 43.4092 79.7679 43.1755 79.8893C42.9418 80.0106 42.7644 80.2231 42.6389 80.5265L41.2671 81.3068C41.4921 80.6696 41.7691 80.119 42.0893 79.6552C42.4095 79.1913 42.7514 78.8098 43.1149 78.5107C43.4784 78.2116 43.8549 77.9906 44.2401 77.8518C44.6252 77.7131 44.9974 77.6437 45.3566 77.6437C45.9278 77.6437 46.5206 77.7608 47.1351 77.9905C47.7496 78.2203 48.3382 78.5021 48.9008 78.8359C49.4633 79.1653 49.9826 79.5121 50.4543 79.8632C50.926 80.2187 51.3068 80.5178 51.5968 80.7649L51.0039 81.6146H51.9776L51.4107 82.629ZM45.045 83.0104L46.486 84.1896L45.4344 85.7111L43.9934 84.5407L45.045 83.0104Z" fill="#260606"/>
<path d="M51.3501 82.629L51.904 81.6059H52.8561C52.882 81.3328 52.9642 81.0293 53.0984 80.6999C53.2368 80.3704 53.41 80.0366 53.6177 79.7072C53.8297 79.3777 54.0591 79.0526 54.3144 78.7405C54.5654 78.4284 54.8207 78.1553 55.0717 77.9212C55.3227 77.6871 55.5737 77.4963 55.816 77.349C56.0584 77.2016 56.2704 77.1279 56.4522 77.1279C56.5474 77.1279 56.621 77.1582 56.6599 77.2146C56.6989 77.2709 56.7378 77.3663 56.7638 77.4964L57.6596 81.6016H58.9838L58.4082 82.6246H57.2485L55.9156 84.1852C55.8766 84.2329 55.829 84.2503 55.7814 84.2459C55.7295 84.2372 55.6862 84.2286 55.6559 84.2069C55.5218 84.1462 55.3573 84.0768 55.1712 83.9901C54.9852 83.9034 54.7774 83.8037 54.5567 83.6823C54.336 83.561 54.1067 83.4179 53.8643 83.2489C53.622 83.0798 53.3797 82.8717 53.133 82.6246H51.3501V82.629ZM54.6216 80.7476C54.8337 80.9773 55.0371 81.1507 55.2232 81.2721C55.4093 81.3978 55.5954 81.5019 55.7771 81.5929L55.2405 79.2043C55.1669 79.2303 55.089 79.2867 54.9981 79.3691C54.9073 79.4514 54.8251 79.5555 54.7515 79.6768C54.6779 79.7982 54.613 79.9239 54.5654 80.0627C54.5178 80.197 54.4919 80.3314 54.4919 80.4528C54.4962 80.5829 54.5394 80.6826 54.6216 80.7476Z" fill="#260606"/>
<path d="M58.3691 82.629L58.9231 81.6059H60.5891V72.8709L62.1081 71.2713L62.3807 73.7466L62.1297 74.0284V82.1608C62.1297 82.2865 62.1254 82.3775 62.1211 82.4382C62.1168 82.4989 62.0951 82.5466 62.0562 82.5726C62.0215 82.6029 61.9696 82.6203 61.9004 82.6203C61.8311 82.6246 61.7359 82.6246 61.6148 82.6246H58.3691V82.629Z" fill="#260606"/>
<path d="M64.523 71.3537V81.5929L62.9868 83.1318V72.8926L64.523 71.3537Z" fill="#260606"/>
</g>
<defs>
<clipPath id="clip0_113_187">
<rect width="74" height="88" fill="white"/>
</clipPath>
</defs>
</svg>
