<svg width="1438" height="652" viewBox="0 0 1438 652" fill="none" xmlns="http://www.w3.org/2000/svg">
<path d="M1437.48 68.6589C1432.73 66.3853 1429.7 62.875 1427.02 63.8723C1404.69 68.1803 1388.25 86.8084 1388.89 59.7637C1378.96 57.849 1385.62 70.4539 1367.55 56.4529C1353.31 63.593 1369.82 50.4696 1360.37 51.4668C1370.62 57.6496 1349.52 48.6746 1349.4 48.0364C1345.97 49.0735 1343.78 50.0308 1342.3 50.9084C1341.82 48.874 1339.95 45.7228 1335.2 41.1755C1316.05 20.9119 1321.08 30.8044 1313.74 28.0122C1303.09 30.4454 1304.49 18.0798 1297.43 18.1197C1280.87 27.4138 1267.15 27.6532 1265.12 17.5214C1249.56 5.35528 1257.38 22.5075 1248.28 17.3618C1244.93 19.5557 1236 28.3712 1235.44 20.9119C1234.88 22.6671 1223.71 27.7329 1225.75 13.1336C1214.82 5.87381 1210.43 -11.9964 1207.52 12.4156C1183.5 14.4499 1163.76 30.206 1138.91 27.4537C1127.78 22.3479 1120.04 39.181 1110.39 37.1068C1099.1 49.1932 1090.16 68.6589 1076.92 59.9233C1072.41 77.7935 1068.3 52.1848 1063.84 60.4019C1058.73 61.6784 1057.61 63.4335 1052.43 63.7526C1041.74 41.2952 1033.12 54.4585 1023.19 73.8445C1008.75 90.0394 988.048 79.2295 972.411 77.1553C956.695 76.0783 943.971 54.3787 929.73 65.3083C906.874 52.3444 883.3 47.3982 862.238 42.1727C854.141 43.4093 847.519 41.6143 838.265 37.4259C825.74 51.1078 814.332 5.31538 801.966 33.9955C790.917 17.4416 779.828 39.2209 768.779 34.2348C756.253 18.1995 743.848 38.6226 731.602 28.2914C708.826 0.608494 684.693 18.9175 661.118 23.9435C648.234 9.46384 637.823 45.7627 625.378 36.9074C616.882 35.7107 609.582 35.8304 601.006 39.7395C590.076 43.0104 579.506 49.3527 568.576 51.4269C549.11 73.4456 531.519 69.7758 510.538 57.2507C492.588 60.1626 474.598 70.6534 456.648 57.1709C443.405 45.3239 430.96 60.3222 417.677 60.6812C404.194 60.8407 390.712 59.0457 377.229 60.7609C363.747 57.9288 350.224 67.7814 336.782 60.5615C322.542 60.2424 309.338 60.721 295.497 57.2108C283.012 54.4984 274.994 75.2805 264.025 42.9306C254.93 37.9844 246.952 30.0066 233.629 31.3628C227.726 24.7413 215.001 39.8591 204.311 33.3573C186.002 40.0187 186.201 39.1013 168.65 34.0753C150.74 37.5456 147.23 51.1078 138.295 33.3573C101.238 27.5335 116.356 14.0112 66.8139 36.5883C50.1802 69.2573 50.7786 33.8758 11.0093 44.0475C6.26256 44.3666 2.75233 44.5262 0 44.6059V574.039C5.42489 574.239 10.9296 578.387 10.8498 586.644C11.5279 597.295 26.2868 596.457 27.5632 596.058C23.8137 595.021 39.9288 597.374 55.286 598.491C81.493 603.198 66.415 591.63 85.8808 601.044C101.118 613.051 127.764 625.935 132.71 598.611C141.645 584.969 146.512 585.487 147.27 588.599C149.942 566.261 161.151 574.119 168.929 586.764C175.232 565.264 200.442 582.217 207.861 585.248C218.471 582.815 236.142 596.018 251.938 585.248C262.429 580.302 273.957 583.214 288.955 588.439C295.098 575.236 322.462 598.013 312.33 596.138C325.055 611.615 321.145 608.184 333.152 598.451C351.062 620.51 363.308 604.514 374.995 599.129C380.46 610.657 386.404 600.924 391.868 605.113C398.291 628.847 406.468 597.933 412.331 611.455C418.594 606.389 423.261 612.093 428.407 625.057C435.387 644.004 437.063 621.268 445.439 631.838C461.076 634.431 473.122 670.451 489.477 638.141C502.201 632.716 515.524 609.181 528.647 638.819C541.771 631.24 554.655 638.221 566.502 633.913C573.004 619.752 579.945 637.343 586.287 629.964C597.456 617.119 608.186 594.502 618.796 612.173C634.313 592.588 653.899 605.272 672.008 605.791C687.844 592.189 706.352 612.014 723.066 608.623C731.323 608.663 737.625 584.45 745.164 601.642C751.666 600.246 758.567 595.819 764.869 596.138C771.77 597.654 778.073 602.44 784.734 587.203C791.236 600.047 800.61 590.194 805.636 578.068C809.425 606.908 807.87 554.853 810.821 566.7C812.656 576.313 815.568 546.835 817.563 562.113C824.503 556.488 825.341 539.934 835.872 555.371C848.955 550.146 861.201 545.519 873.287 552.539C886.251 548.311 897.819 549.907 911.461 548.83C924.983 539.974 938.586 559.241 952.068 548.75C959.806 547.513 965.191 549.827 972.691 552.14C976.041 535.347 978.873 547.274 982.344 552.739C988.925 554.653 994.35 566.022 1000.93 559.121C1008.95 573.321 1014.93 569.372 1022.95 561.155C1026.9 558.922 1028.93 557.844 1032.88 565.383C1045.97 574.159 1056.74 563.269 1067.71 575.435C1078.04 585.567 1095.79 576.552 1108.03 569.532C1113.74 561.315 1120.12 554.374 1134.48 562.192C1131.49 569.412 1142.22 581.538 1152.31 555.331C1173.45 525.734 1177.4 552.978 1186.14 565.423C1196.15 568.136 1226.66 580.86 1227.78 568.575C1250.8 570.21 1263.76 582.576 1277.24 582.097C1264.32 582.017 1299.66 567.059 1294.39 589.636C1307.48 590.115 1321.92 611.974 1313.54 608.902C1317.13 619.513 1345.93 627.451 1349.68 618.835C1350.88 599.329 1394.83 641.172 1366.95 631.838C1372.3 644.643 1387.18 652.062 1385.94 635.109C1403.53 627.69 1390.29 621.268 1419.88 644.922C1425.95 634.431 1431.77 636.904 1437.64 640.773V68.6589H1437.48Z" fill="#4C4C4C"/>
<path d="M1437.48 82.8994C1432.73 80.7853 1429.7 77.5543 1427.02 78.4718C1404.69 82.4606 1388.25 99.7325 1388.89 74.6424C1378.96 72.8474 1385.62 84.5349 1367.55 71.571C1353.31 78.1925 1369.82 65.9865 1360.37 66.9837C1370.62 72.7277 1349.52 64.391 1349.4 63.8325C1345.97 64.7899 1343.78 65.7073 1342.3 66.5051C1341.82 64.6303 1339.95 61.7184 1335.2 57.4902C1316.05 38.7424 1321.08 47.877 1313.74 45.2842C1303.09 47.518 1304.49 36.0699 1297.43 36.1098C1280.87 44.7258 1267.15 44.9252 1265.12 35.5513C1249.56 24.3027 1257.38 40.1784 1248.28 35.3918C1244.93 37.4261 1236 45.6033 1235.44 38.7025C1234.88 40.2981 1223.71 45.0449 1225.75 31.4827C1214.82 24.7414 1210.43 8.18754 1207.52 30.8444C1183.5 32.7192 1163.76 47.3584 1138.91 44.7656C1127.78 40.0587 1120.04 55.6154 1110.39 53.7406C1099.1 64.9494 1090.16 82.9792 1076.92 74.8818C1072.41 91.4755 1068.3 67.7018 1063.84 75.3205C1058.73 76.5172 1057.61 78.1128 1052.43 78.4319C1041.74 57.6099 1033.12 69.8159 1023.19 87.7659C1008.75 102.804 988.048 92.752 972.411 90.8373C956.695 89.8401 943.971 69.7361 929.73 79.8679C906.874 67.8613 883.3 63.2741 862.238 58.4077C854.141 59.5245 847.519 57.8891 838.265 53.98C825.74 66.6647 814.332 24.2229 801.966 50.7889C790.917 35.4715 779.828 55.6154 768.779 51.0282C756.253 36.1496 743.848 55.0969 731.602 45.4836C708.826 19.8351 684.693 36.7879 661.118 41.4549C648.234 28.0123 637.823 61.6785 625.378 53.4614C616.882 52.3445 609.582 52.4642 601.006 56.0941C590.076 59.1256 579.506 65.0292 568.576 66.9439C549.11 87.3271 531.519 83.9764 510.538 72.3289C492.588 75.0413 474.598 84.7343 456.648 72.2491C443.405 61.2796 430.96 75.161 417.677 75.52C404.194 75.6796 390.712 74.0042 377.229 75.5998C363.747 72.9671 350.224 82.1016 336.782 75.4003C322.542 75.1211 309.338 75.5599 295.497 72.3289C283.012 69.8159 274.994 89.0822 264.025 59.0858C254.93 54.4985 246.952 47.1191 233.629 48.3556C227.726 42.2128 215.001 56.2536 204.311 50.1905C186.002 56.3733 186.201 55.4958 168.65 50.8687C150.74 54.0997 147.23 66.6646 138.295 50.1905C101.238 44.8055 116.356 32.2405 66.8139 53.1822C50.1802 83.4579 50.7786 50.6692 11.0093 60.083C6.26256 60.3622 2.75233 60.5218 0 60.6015V558.477C5.42489 558.637 10.9296 562.506 10.8498 570.165C11.5279 580.057 26.2868 579.259 27.5632 578.9C23.8137 577.943 39.9288 580.137 55.286 581.134C81.493 585.482 66.415 574.792 85.8808 583.527C101.118 594.656 127.764 606.583 132.71 581.254C141.645 568.609 146.512 569.088 147.27 572C149.942 551.297 161.151 558.557 168.929 570.284C175.232 550.38 200.442 566.096 207.861 568.848C218.471 566.575 236.142 578.821 251.938 568.848C262.429 564.261 273.957 566.974 288.955 571.8C295.098 559.554 322.462 580.655 312.33 578.94C325.055 593.3 321.145 590.109 333.152 581.094C351.062 601.557 363.308 586.719 374.995 581.693C380.46 592.383 386.404 583.328 391.868 587.237C398.291 609.216 406.468 580.576 412.331 593.101C418.594 588.394 423.261 593.699 428.407 605.706C435.387 623.297 437.063 602.195 445.439 611.968C461.076 614.362 473.122 647.749 489.477 617.792C502.201 612.766 515.524 590.947 528.647 618.43C541.771 611.41 554.655 617.872 566.502 613.883C573.004 600.759 579.945 617.074 586.287 610.213C597.456 598.326 608.186 577.345 618.796 593.739C634.313 575.59 653.899 587.357 672.008 587.835C687.844 575.231 706.352 593.619 723.066 590.468C731.323 590.508 737.625 568.051 745.164 584.006C751.666 582.73 758.567 578.621 764.869 578.9C771.77 580.297 778.073 584.724 784.734 570.604C791.236 582.53 800.61 573.356 805.636 562.147C809.425 588.873 807.87 540.607 810.821 551.616C812.656 560.512 815.568 533.188 817.563 547.388C824.503 542.163 825.341 526.845 835.872 541.165C848.955 536.339 861.201 532.031 873.287 538.533C886.251 534.624 897.819 536.099 911.461 535.102C924.983 526.885 938.586 544.755 952.068 535.023C959.806 533.866 965.191 536.02 972.691 538.174C976.041 522.617 978.873 533.666 982.344 538.692C988.925 540.487 994.35 551.018 1000.93 544.596C1008.95 557.759 1014.93 554.129 1022.95 546.511C1026.9 544.436 1028.93 543.439 1032.88 550.42C1045.97 558.557 1056.74 548.465 1067.71 559.714C1078.04 569.088 1095.79 560.751 1108.03 554.249C1113.74 546.63 1120.12 540.168 1134.48 547.428C1131.49 554.129 1142.22 565.338 1152.31 541.086C1173.45 513.642 1177.4 538.932 1186.14 550.46C1196.15 552.973 1226.66 564.74 1227.78 553.371C1250.8 554.887 1263.76 566.335 1277.24 565.937C1264.32 565.857 1299.66 552.015 1294.39 572.917C1307.48 573.396 1321.92 593.619 1313.54 590.787C1317.13 600.6 1345.93 607.979 1349.68 600.002C1350.88 581.932 1394.83 620.704 1366.95 612.088C1372.3 623.975 1387.18 630.836 1385.94 615.12C1403.53 608.259 1390.29 602.315 1419.88 624.214C1425.95 614.481 1431.77 616.795 1437.64 620.385V82.8994H1437.48Z" fill="#303030"/>
</svg>
