<svg width="74" height="88" viewBox="0 0 74 88" fill="none" xmlns="http://www.w3.org/2000/svg">
<g clip-path="url(#clip0_29_7)">
<path d="M74.0476 26.2353C72.0786 23.4696 70.1572 19.8585 67.4006 17.0625C56.2963 5.79152 36.4158 5.44906 25.1946 16.0871C22.213 18.9178 20.1964 22.3815 18.6601 26.1746C18.3529 26.9289 17.5999 27.6008 16.8945 28.082C11.8573 31.5283 6.73356 34.8575 1.75263 38.3819C0.947714 38.9498 0.692395 40.3066 0.294266 41.0869C-0.311582 39.678 -0.333221 38.8847 1.42807 37.4108C3.4966 35.6812 3.91637 33.6568 4.189 31.0818C5.68199 17.1102 13.0863 7.21773 26.177 2.34088C39.1118 -2.47961 50.9778 0.229756 61.3032 9.45892C62.6447 10.6554 64.0165 11.8258 65.4013 12.9703C69.8543 16.668 72.9095 21.2154 74.0476 26.2353Z" fill="white"/>
<path d="M18.5952 46.1588C18.3789 46.4363 17.9158 47.0258 17.3057 47.8104C20.5253 48.2786 21.8106 50.4418 22.5592 53.0558C23.7277 57.135 24.8441 61.2315 25.9866 65.3454C20.3263 65.003 10.0312 55.7738 7.94531 49.3971C11.5804 48.2916 15.2155 47.1862 18.5952 46.1588Z" fill="white"/>
<path d="M36.3032 41.8759C37.5711 43.4841 38.9603 45.0101 40.0811 46.7094C43.1363 51.3435 47.1955 53.9054 52.8861 54.1699C55.9153 54.3129 58.9013 55.3706 61.818 56.4891C58.8797 56.0469 55.95 55.31 52.9986 55.2276C46.3473 55.0369 41.8034 51.8073 38.653 46.1675C37.8654 44.7586 36.8701 43.4668 35.97 42.1186C36.0825 42.0362 36.1907 41.9539 36.3032 41.8759Z" fill="white"/>
<path d="M71.4251 44.1214C72.0526 38.1088 70.8106 32.4343 68.53 26.9375C71.49 32.3042 72.7018 37.9917 71.4251 44.1214Z" fill="white"/>
<path d="M53.4185 20.0233C56.9757 22.2124 59.5592 25.4897 61.1387 29.2958C58.6201 26.2699 55.9544 23.0621 53.4185 20.0233Z" fill="white"/>
<path fill-rule="evenodd" clip-rule="evenodd" d="M56.7721 25.3639C51.8561 19.0566 45.2567 17.6997 37.5624 18.402C37.8058 18.2794 38.0493 18.1566 38.2929 18.0338C39.5132 17.4187 40.7356 16.8026 41.9549 16.1955C35.1218 17.3182 29.8379 20.5305 27.0034 27.1109C26.6159 28.0089 26.0989 28.8541 25.5659 29.7256C25.3192 30.129 25.069 30.538 24.8267 30.9604C24.9898 30.8754 25.1748 30.7969 25.3677 30.7151C25.8044 30.5298 26.2814 30.3274 26.6355 29.9937C28.254 28.4765 28.5872 28.4895 29.6388 30.2798L30.2635 29.8177C32.1291 28.4376 34.0256 27.0346 36.1041 25.4983C37.0172 28.199 37.7485 30.5442 36.4027 32.4733C35.561 33.6778 34.3538 34.6251 33.1467 35.5722C32.6162 35.9885 32.0857 36.4048 31.5862 36.843C33.1384 35.6231 34.0449 36.7781 34.8822 37.8452L34.9054 37.8747C36.7649 40.2404 38.6049 42.6224 40.4443 45.0038C41.6014 46.5017 42.7582 47.9993 43.9195 49.4924C45.2264 51.17 46.9747 51.9807 49.0649 52.3492C51.3828 52.7577 53.6923 53.2075 56.0017 53.6573C58.4223 54.1287 60.8426 54.6001 63.272 55.0238C63.8649 55.1279 64.804 54.7594 65.2021 54.2869C74.0042 43.8699 71.0485 26.0836 59.3816 19.0522C59.0614 18.858 58.7153 18.7057 58.3689 18.5533C58.2051 18.4813 58.0412 18.4092 57.88 18.3326C58.1963 19.1691 58.6647 19.6845 59.1329 20.1997L59.1696 20.24C65.0117 26.6644 66.8076 35.7115 63.5274 42.5001C63.1875 43.1987 62.7124 43.8327 62.2372 44.4669C62.0165 44.7613 61.7958 45.0558 61.5886 45.3569C61.4999 45.3243 61.4112 45.2907 61.3224 45.2571C61.2338 45.2235 61.1451 45.1899 61.0564 45.1574C62.8436 37.827 61.3593 31.2508 56.7721 25.3639ZM49.1385 43.9819C49.1385 43.9821 49.1385 43.9824 49.1385 43.9827C48.5413 39.0928 45.8929 36.6392 41.0374 36.0367C45.8323 35.4688 48.5802 33.1279 48.7274 27.7308C48.7274 27.731 48.7275 27.7311 48.7275 27.7312C48.7275 27.7311 48.7275 27.731 48.7275 27.7308C49.0866 28.5279 49.3724 29.2928 49.6387 30.0056C50.1907 31.483 50.659 32.7364 51.5231 33.5874C52.4236 34.4717 53.7189 34.9525 55.1658 35.4895C55.8396 35.7396 56.5463 36.0018 57.2613 36.3228C57.2613 36.3228 57.2612 36.3228 57.2611 36.3228C56.5898 36.3746 55.9565 36.4623 55.3626 36.5885C51.6881 37.3694 49.5186 39.624 49.1386 43.9827C49.1386 43.9824 49.1386 43.9821 49.1385 43.9819Z" fill="white"/>
<path d="M19.8415 76.9025C19.7376 77.1756 19.6857 77.466 19.6857 77.7695C19.6857 78.294 19.8328 78.7925 20.1271 79.2564C20.4214 79.7202 20.8108 80.1277 21.2955 80.4745C21.7802 80.8213 22.3254 81.0987 22.9399 81.2981C23.5545 81.4975 24.1863 81.6016 24.8354 81.6016L24.2598 82.6246C23.5761 82.6246 22.914 82.5162 22.2692 82.3038C21.6244 82.0914 21.0532 81.7966 20.5598 81.4195C20.0665 81.0467 19.6684 80.6002 19.3654 80.0843C19.0625 79.5685 18.9111 79.0049 18.9111 78.3937H18.5216C17.9374 78.3937 17.4397 78.4154 17.0286 78.463C16.6175 78.5107 16.2626 78.5671 15.9727 78.6408C16.0939 78.8879 16.2886 79.1436 16.5569 79.4081C16.8209 79.6725 17.1325 79.9326 17.4916 80.1927C17.8465 80.4528 18.236 80.7086 18.6601 80.96C19.0798 81.2114 19.5126 81.4455 19.954 81.6666L18.6298 83.6867C18.3139 83.522 17.9936 83.3572 17.6777 83.1882C17.3618 83.0191 17.0632 82.8327 16.7906 82.6333H7.29175L8.18754 81.1897L8.61596 81.3241L8.44287 81.6059H15.462C15.0553 81.2634 14.7567 80.9253 14.5662 80.5915C14.3758 80.2621 14.285 79.9109 14.285 79.5468C14.3023 79.1523 14.3932 78.7622 14.5576 78.3807C14.7177 77.9992 14.999 77.6567 15.3885 77.3576C15.7823 77.0542 16.3102 76.8114 16.9723 76.625C17.6344 76.4386 18.4783 76.3476 19.5039 76.3476C19.8198 76.3476 19.9799 76.4213 19.9799 76.5643C19.9756 76.6424 19.9323 76.7551 19.8415 76.9025ZM12.5021 83.3486L13.8955 84.4973L14.6268 83.3486L16.0766 84.5493L15.0726 85.9842L13.6921 84.8745L12.9521 85.9842L11.511 84.8225L12.5021 83.3486Z" fill="white"/>
<path d="M24.2122 82.629L24.7747 81.6059H28.6868L28.016 78.6018L29.535 76.8548L30.6255 81.8096L29.1065 83.5436L28.9031 82.629H24.2122ZM27.4837 75.2465L28.2627 74.1237L29.7037 75.2855L28.7387 76.6987L27.3453 75.576L26.5663 76.6987L25.1253 75.5369L26.0903 74.1237L27.4837 75.2465Z" fill="white"/>
<path d="M32.9408 71.3537V81.5929L31.4045 83.1318V72.8926L32.9408 71.3537Z" fill="white"/>
<path d="M35.745 78.5324C36.1908 79.6292 36.4288 80.6652 36.4547 81.6276C36.4807 82.59 36.3249 83.4786 35.9917 84.2806C35.6585 85.0826 35.1608 85.7978 34.503 86.4264C33.8453 87.055 33.0533 87.5752 32.1316 87.9913L33.0187 86.0016C33.6289 85.7718 34.1093 85.438 34.4641 84.9959C34.819 84.5537 34.9964 84.0335 34.9964 83.4353C34.9964 83.2055 34.9791 82.9628 34.9445 82.7027C34.9098 82.4426 34.8579 82.1825 34.7887 81.918C34.7194 81.6536 34.6415 81.3935 34.555 81.1334C34.4684 80.8733 34.3732 80.6305 34.278 80.4095L35.745 78.5324Z" fill="white"/>
<path d="M40.2152 82.629C40.159 83.1795 39.9945 83.7344 39.7349 84.2893C39.4752 84.8441 39.142 85.3687 38.7482 85.8542C38.3501 86.3397 37.9087 86.7732 37.4196 87.146C36.9306 87.5188 36.4243 87.8006 35.905 87.9913L36.7922 86.0016C37.4024 85.7718 37.8827 85.438 38.2376 84.9959C38.5924 84.5537 38.7698 84.0335 38.7698 83.4353C38.7698 83.2055 38.7525 82.9628 38.7179 82.7027C38.6833 82.4426 38.6314 82.1825 38.5621 81.918C38.4929 81.6536 38.415 81.3935 38.3284 81.1334C38.2419 80.8733 38.1467 80.6305 38.0515 80.4095L39.5228 78.5281C39.5401 78.5107 39.5921 78.6148 39.6699 78.8489C39.7478 79.083 39.8344 79.3647 39.9209 79.6985C40.0075 80.0323 40.0897 80.3748 40.159 80.7259C40.2282 81.0814 40.2628 81.3718 40.2628 81.5972H41.15L40.5744 82.6203H40.2066H40.2152V82.629ZM38.2073 76.0745L39.6483 77.2449L38.5881 78.7665L37.1557 77.6047L38.2073 76.0745Z" fill="white"/>
<path d="M51.4105 82.629H40.5095L41.0721 81.6059H48.7317C48.4072 81.3805 48.0567 81.1507 47.6802 80.9253C47.3037 80.6999 46.9185 80.4962 46.5204 80.3141C46.1223 80.1364 45.7285 79.989 45.3347 79.8763C44.9409 79.7636 44.5601 79.7072 44.1965 79.7072C43.7465 79.7072 43.409 79.7679 43.1753 79.8893C42.9416 80.0106 42.7642 80.2231 42.6387 80.5265L41.2668 81.3068C41.4919 80.6696 41.7688 80.119 42.0891 79.6552C42.4093 79.1913 42.7512 78.8098 43.1147 78.5107C43.4782 78.2116 43.8547 77.9906 44.2398 77.8518C44.625 77.7131 44.9971 77.6437 45.3563 77.6437C45.9275 77.6437 46.5204 77.7608 47.1349 77.9905C47.7494 78.2203 48.3379 78.5021 48.9005 78.8359C49.4631 79.1653 49.9824 79.5121 50.4541 79.8632C50.9258 80.2187 51.3066 80.5178 51.5965 80.7649L51.0037 81.6146H51.9774L51.4105 82.629ZM45.0447 83.0104L46.4858 84.1896L45.4342 85.7111L43.9931 84.5407L45.0447 83.0104Z" fill="white"/>
<path d="M51.3499 82.629L51.9037 81.6059H52.8558C52.8818 81.3328 52.964 81.0293 53.0981 80.6999C53.2366 80.3704 53.4097 80.0366 53.6175 79.7072C53.8295 79.3777 54.0588 79.0526 54.3142 78.7405C54.5652 78.4284 54.8205 78.1553 55.0715 77.9212C55.3225 77.6871 55.5735 77.4963 55.8158 77.349C56.0581 77.2016 56.2702 77.1279 56.4519 77.1279C56.5471 77.1279 56.6207 77.1582 56.6597 77.2146C56.6986 77.2709 56.7376 77.3663 56.7635 77.4964L57.6593 81.6016H58.9835L58.408 82.6246H57.2482L55.9153 84.1852C55.8764 84.2329 55.8288 84.2503 55.7812 84.2459C55.7293 84.2372 55.686 84.2286 55.6557 84.2069C55.5215 84.1462 55.3571 84.0768 55.171 83.9901C54.9849 83.9034 54.7772 83.8037 54.5565 83.6823C54.3358 83.561 54.1064 83.4179 53.8641 83.2489C53.6218 83.0798 53.3794 82.8717 53.1328 82.6246H51.3499V82.629ZM54.6214 80.7476C54.8335 80.9773 55.0368 81.1507 55.2229 81.2721C55.409 81.3978 55.5951 81.5019 55.7769 81.5929L55.2403 79.2043C55.1667 79.2303 55.0888 79.2867 54.9979 79.3691C54.907 79.4514 54.8248 79.5555 54.7513 79.6768C54.6777 79.7982 54.6127 79.9239 54.5651 80.0627C54.5175 80.197 54.4916 80.3314 54.4916 80.4528C54.4959 80.5829 54.5392 80.6826 54.6214 80.7476Z" fill="white"/>
<path d="M58.3691 82.629L58.9231 81.6059H60.5891V72.8709L62.1081 71.2713L62.3807 73.7466L62.1297 74.0284V82.1608C62.1297 82.2865 62.1254 82.3775 62.1211 82.4382C62.1168 82.4989 62.0951 82.5466 62.0562 82.5726C62.0215 82.6029 61.9696 82.6203 61.9004 82.6203C61.8311 82.6246 61.7359 82.6246 61.6148 82.6246H58.3691V82.629Z" fill="white"/>
<path d="M64.5228 71.3537V81.5929L62.9866 83.1318V72.8926L64.5228 71.3537Z" fill="white"/>
</g>
<defs>
<clipPath id="clip0_29_7">
<rect width="74" height="88" fill="white"/>
</clipPath>
</defs>
</svg>
