<?xml version="1.0" encoding="utf-8"?>
<!-- Generator: Adobe Illustrator 27.8.1, SVG Export Plug-In . SVG Version: 6.00 Build 0)  -->
<svg version="1.1" id="Logo" xmlns="http://www.w3.org/2000/svg" xmlns:xlink="http://www.w3.org/1999/xlink" x="0px" y="0px"
	 viewBox="0 0 1920 1080" style="enable-background:new 0 0 1920 1080;" xml:space="preserve">
<style type="text/css">
	.st0{fill:#FFFFFF;}
</style>
<path d="M993.8,464.45c3.38-1.7,6.77-3.4,10.15-5.11c-15.8,2.58-28,10-34.55,25.18c-1.31,3.04-3.26,5.8-5.03,8.88
	c1.23-0.63,3-1.12,4.18-2.23c3.74-3.5,4.51-3.47,6.94,0.66c4.78-3.53,9.6-7.09,14.94-11.03c2.11,6.23,3.8,11.64,0.69,16.09
	c-2.8,4-7.35,6.77-11.13,10.08c3.62-2.83,5.71-0.1,7.67,2.38c6.99,8.89,13.87,17.87,20.83,26.8c3.02,3.87,7.06,5.75,11.89,6.59
	c10.97,1.93,21.86,4.26,32.83,6.17c1.38,0.24,3.54-0.61,4.46-1.7c20.35-24.02,13.51-65.06-13.45-81.28
	c-1.09-0.66-2.31-1.11-3.47-1.66c0.75,1.98,1.87,3.18,2.98,4.4c13.5,14.82,17.65,35.69,10.07,51.35c-1.15,2.37-2.97,4.4-4.48,6.59
	c-0.41-0.15-0.82-0.31-1.23-0.46c4.13-16.91,0.7-32.08-9.9-45.66C1026.83,465.96,1011.57,462.83,993.8,464.45z M1078.11,482.52
	c-2.63-11.57-9.69-22.07-19.98-30.58c-3.2-2.65-6.37-5.34-9.47-8.1c-23.86-21.29-51.28-27.54-81.17-16.42
	c-30.25,11.26-47.36,34.07-50.81,66.3c-0.64,5.94-1.61,10.61-6.38,14.6c-4.07,3.4-4.02,5.22-2.62,8.48c0.93-1.8,1.51-4.92,3.37-6.24
	c11.52-8.13,23.35-15.81,34.99-23.76c1.63-1.11,3.37-2.66,4.08-4.4c3.55-8.75,8.2-16.75,15.1-23.27
	c25.92-24.54,71.87-23.76,97.53,2.25C1069.12,467.81,1073.56,476.14,1078.11,482.52z M949.97,528.48
	c-7.82,2.37-16.22,4.92-24.61,7.47c4.82,14.71,28.61,36,41.69,36.79c-2.65-9.49-5.22-18.94-7.92-28.35
	c-1.73-6.03-4.7-11.02-12.14-12.1C948.41,530.48,949.47,529.11,949.97,528.48z M990.89,518.6c-0.26,0.19-0.51,0.38-0.77,0.56
	c2.08,3.11,4.38,6.09,6.2,9.34c7.28,13.01,17.78,20.45,33.15,20.9c6.81,0.2,13.59,1.9,20.38,2.91c-6.74-2.58-13.64-5.02-20.64-5.35
	c-13.15-0.61-22.54-6.52-29.59-17.21C997.03,525.82,993.82,522.3,990.89,518.6z M1072.05,523.78c2.95-14.14,0.16-27.26-6.69-39.64
	C1070.63,496.81,1073.49,509.9,1072.05,523.78z M1030.44,468.19c5.85,7.02,12.02,14.41,17.84,21.39
	C1044.63,480.79,1038.67,473.24,1030.44,468.19z"/>
<path class="st0" d="M993.8,464.45c17.78-1.62,33.03,1.51,44.39,16.06c10.6,13.58,14.03,28.75,9.9,45.66
	c0.41,0.15,0.82,0.31,1.23,0.46c1.51-2.19,3.33-4.23,4.48-6.59c7.58-15.66,3.43-36.53-10.07-51.35c-1.11-1.22-2.23-2.42-2.98-4.4
	c1.16,0.55,2.38,1,3.47,1.66c26.96,16.22,33.79,57.25,13.45,81.28c-0.92,1.09-3.09,1.94-4.46,1.7c-10.97-1.91-21.86-4.24-32.83-6.17
	c-4.83-0.85-8.87-2.72-11.89-6.59c-6.95-8.92-13.83-17.91-20.83-26.8c-1.95-2.48-4.05-5.22-7.67-2.38
	c3.78-3.31,8.33-6.08,11.13-10.08c3.11-4.45,1.42-9.86-0.69-16.09c-5.34,3.94-10.16,7.5-14.94,11.03c-2.43-4.13-3.2-4.16-6.94-0.66
	c-1.18,1.11-2.95,1.59-4.18,2.23c1.77-3.08,3.72-5.85,5.03-8.88c6.55-15.18,18.76-22.59,34.55-25.18
	C1000.57,461.04,997.18,462.75,993.8,464.45z M1020.55,523.46c1.02-11.68,7.62-16.81,18.77-17.67c-5.2-2.33-10.21-3.32-13.26-6.31
	c-2.96-2.9-3.91-7.86-6.46-13.51c-0.34,12.45-6.69,17.85-17.77,19.16C1013.05,506.52,1019.17,512.18,1020.55,523.46z"/>
<path class="st0" d="M1078.11,482.52c-4.55-6.38-8.99-14.71-15.36-21.16c-25.66-26-71.6-26.79-97.53-2.25
	c-6.89,6.53-11.55,14.52-15.1,23.27c-0.71,1.74-2.45,3.29-4.08,4.4c-11.64,7.95-23.48,15.63-34.99,23.76
	c-1.86,1.31-2.45,4.44-3.37,6.24c-1.4-3.25-1.45-5.08,2.62-8.48c4.78-3.99,5.75-8.66,6.38-14.6c3.45-32.23,20.56-55.05,50.81-66.3
	c29.89-11.12,57.31-4.87,81.17,16.42c3.1,2.76,6.27,5.46,9.47,8.1C1068.42,460.45,1075.48,470.94,1078.11,482.52z"/>
<path class="st0" d="M949.97,528.48c-0.5,0.64-1.57,2-2.98,3.81c7.44,1.08,10.41,6.07,12.14,12.1c2.7,9.41,5.28,18.86,7.92,28.35
	c-13.08-0.79-36.87-22.08-41.69-36.79C933.76,533.4,942.16,530.85,949.97,528.48z"/>
<path class="st0" d="M990.89,518.6c2.93,3.71,6.14,7.23,8.73,11.15c7.06,10.69,16.44,16.6,29.59,17.21c7,0.33,13.9,2.77,20.64,5.35
	c-6.79-1.02-13.56-2.72-20.38-2.91c-15.37-0.44-25.87-7.89-33.15-20.9c-1.82-3.25-4.12-6.23-6.2-9.34
	C990.38,518.97,990.63,518.78,990.89,518.6z"/>
<path class="st0" d="M1072.05,523.78c1.45-13.87-1.42-26.96-6.69-39.64C1072.2,496.52,1075,509.64,1072.05,523.78z"/>
<path class="st0" d="M1030.44,468.19c8.22,5.05,14.19,12.61,17.84,21.39C1042.46,482.6,1036.3,475.2,1030.44,468.19z"/>
<path class="st0" d="M1020.55,523.46c-1.38-11.28-7.49-16.94-18.72-18.33c11.08-1.3,17.43-6.7,17.77-19.16
	c2.55,5.65,3.5,10.6,6.46,13.51c3.05,2.99,8.06,3.98,13.26,6.31C1028.17,506.65,1021.57,511.78,1020.55,523.46z"/>
<g>
	<path class="st0" d="M952.85,599.4c-0.24,0.63-0.36,1.3-0.36,2c0,1.21,0.34,2.36,1.02,3.43c0.68,1.07,1.58,2.01,2.7,2.81
		c1.12,0.8,2.38,1.44,3.8,1.9c1.42,0.46,2.88,0.7,4.38,0.7l-1.33,2.36c-1.58,0-3.11-0.25-4.6-0.74s-2.81-1.17-3.95-2.04
		c-1.14-0.86-2.06-1.89-2.76-3.08c-0.7-1.19-1.05-2.49-1.05-3.9h-0.9c-1.35,0-2.5,0.05-3.45,0.16c-0.95,0.11-1.77,0.24-2.44,0.41
		c0.28,0.57,0.73,1.16,1.35,1.77c0.61,0.61,1.33,1.21,2.16,1.81c0.82,0.6,1.72,1.19,2.7,1.77c0.97,0.58,1.97,1.12,2.99,1.63
		l-3.06,4.66c-0.73-0.38-1.47-0.76-2.2-1.15c-0.73-0.39-1.42-0.82-2.05-1.28h-21.95l2.07-3.33l0.99,0.31l-0.4,0.65h16.22
		c-0.94-0.79-1.63-1.57-2.07-2.34c-0.44-0.76-0.65-1.57-0.65-2.41c0.04-0.91,0.25-1.81,0.63-2.69c0.37-0.88,1.02-1.67,1.92-2.36
		c0.91-0.7,2.13-1.26,3.66-1.69c1.53-0.43,3.48-0.64,5.85-0.64c0.73,0,1.1,0.17,1.1,0.5C953.16,598.8,953.06,599.06,952.85,599.4z
		 M935.89,614.27l3.22,2.65l1.69-2.65l3.35,2.77l-2.32,3.31l-3.19-2.56l-1.71,2.56l-3.33-2.68L935.89,614.27z"/>
	<path class="st0" d="M962.95,612.61l1.3-2.36h9.04l-1.55-6.93l3.51-4.03l2.52,11.43l-3.51,4l-0.47-2.11H962.95z M970.51,595.58
		l1.8-2.59l3.33,2.68l-2.23,3.26l-3.22-2.59l-1.8,2.59l-3.33-2.68l2.23-3.26L970.51,595.58z"/>
	<path class="st0" d="M983.12,586.6v23.62l-3.55,3.55v-23.62L983.12,586.6z"/>
	<path class="st0" d="M989.6,603.16c1.03,2.53,1.58,4.92,1.64,7.14s-0.3,4.27-1.07,6.12c-0.77,1.85-1.92,3.5-3.44,4.95
		c-1.52,1.45-3.35,2.65-5.48,3.61l2.05-4.59c1.41-0.53,2.52-1.3,3.34-2.32s1.23-2.22,1.23-3.6c0-0.53-0.04-1.09-0.12-1.69
		c-0.08-0.6-0.2-1.2-0.36-1.81s-0.34-1.21-0.54-1.81s-0.42-1.16-0.64-1.67L989.6,603.16z"/>
	<path class="st0" d="M999.93,612.61c-0.13,1.27-0.51,2.55-1.11,3.83s-1.37,2.49-2.28,3.61c-0.92,1.12-1.94,2.12-3.07,2.98
		s-2.3,1.51-3.5,1.95l2.05-4.59c1.41-0.53,2.52-1.3,3.34-2.32s1.23-2.22,1.23-3.6c0-0.53-0.04-1.09-0.12-1.69
		c-0.08-0.6-0.2-1.2-0.36-1.81s-0.34-1.21-0.54-1.81s-0.42-1.16-0.64-1.67l3.4-4.34c0.04-0.04,0.16,0.2,0.34,0.74
		c0.18,0.54,0.38,1.19,0.58,1.96s0.39,1.56,0.55,2.37c0.16,0.82,0.24,1.49,0.24,2.01h2.05l-1.33,2.36h-0.85H999.93z M995.29,597.49
		l3.33,2.7l-2.45,3.51l-3.31-2.68L995.29,597.49z"/>
	<path class="st0" d="M1025.8,612.61h-25.19l1.3-2.36h17.7c-0.75-0.52-1.56-1.05-2.43-1.57c-0.87-0.52-1.76-0.99-2.68-1.41
		c-0.92-0.41-1.83-0.75-2.74-1.01s-1.79-0.39-2.63-0.39c-1.04,0-1.82,0.14-2.36,0.42c-0.54,0.28-0.95,0.77-1.24,1.47l-3.17,1.8
		c0.52-1.47,1.16-2.74,1.9-3.81s1.53-1.95,2.37-2.64c0.84-0.69,1.71-1.2,2.6-1.52c0.89-0.32,1.75-0.48,2.58-0.48
		c1.32,0,2.69,0.27,4.11,0.8s2.78,1.18,4.08,1.95c1.3,0.76,2.5,1.56,3.59,2.37c1.09,0.82,1.97,1.51,2.64,2.08l-1.37,1.96h2.25
		L1025.8,612.61z M1011.09,613.49l3.33,2.72l-2.43,3.51l-3.33-2.7L1011.09,613.49z"/>
	<path class="st0" d="M1025.66,612.61l1.28-2.36h2.2c0.06-0.63,0.25-1.33,0.56-2.09c0.32-0.76,0.72-1.53,1.2-2.29
		c0.49-0.76,1.02-1.51,1.61-2.23c0.58-0.72,1.17-1.35,1.75-1.89c0.58-0.54,1.16-0.98,1.72-1.32c0.56-0.34,1.05-0.51,1.47-0.51
		c0.22,0,0.39,0.07,0.48,0.2s0.18,0.35,0.24,0.65l2.07,9.47h3.06l-1.33,2.36h-2.68l-3.08,3.6c-0.09,0.11-0.2,0.15-0.31,0.14
		c-0.12-0.02-0.22-0.04-0.29-0.09c-0.31-0.14-0.69-0.3-1.12-0.5c-0.43-0.2-0.91-0.43-1.42-0.71s-1.04-0.61-1.6-1
		s-1.12-0.87-1.69-1.44H1025.66z M1033.22,608.27c0.49,0.53,0.96,0.93,1.39,1.21c0.43,0.29,0.86,0.53,1.28,0.74l-1.24-5.51
		c-0.17,0.06-0.35,0.19-0.56,0.38c-0.21,0.19-0.4,0.43-0.57,0.71c-0.17,0.28-0.32,0.57-0.43,0.89c-0.11,0.31-0.17,0.62-0.17,0.9
		C1032.93,607.89,1033.03,608.12,1033.22,608.27z"/>
	<path class="st0" d="M1041.88,612.61l1.28-2.36h3.85v-20.15l3.51-3.69l0.63,5.71l-0.58,0.65v18.76c0,0.29-0.01,0.5-0.02,0.64
		s-0.06,0.25-0.15,0.31c-0.08,0.07-0.2,0.11-0.36,0.11c-0.16,0.01-0.38,0.01-0.66,0.01H1041.88z"/>
	<path class="st0" d="M1056.1,586.6v23.62l-3.55,3.55v-23.62L1056.1,586.6z"/>
</g>
</svg>
